<?xml version="1.0" encoding="UTF-8"?>
<svg id="_레이어_2" data-name=" 레이어 2" xmlns="http://www.w3.org/2000/svg" version="1.1" viewBox="0 0 65 65">
  <defs>
    <style>
      .cls-1 {
        fill: #005baa;
        stroke-width: 0px;
      }
    </style>
  </defs>
  <g id="_레이어_1-2" data-name=" 레이어 1-2">
    <g>
      <path class="cls-1" d="M14.3,26c-.6.3-1.4,0-2.1.2,0,.5,0,.9,0,1.2v11.1s1.5.2,1.6.2c.8.1,1.3.3,1.2,1.3-.1,1.7-1.2,1.4-2.5,1.5-.9,0-1.7,0-2.6,0-1.3,0-2.6,0-3.9,0-.9,0-1.8,0-2.7,0-.9,0-2.5-.3-2.6-1.4-.2-1.6,1.9-1.4,2.9-1.5,0-.6,0-1.3,0-1.9v-8.9c0,0,0-.8,0-1.6-1,0-2.2,0-2.7-1-.4-.8,0-1.6.8-1.9.8-.3,1.8-.3,2.6-.3,2.8,0,5.5,0,8.2,0s1.6.1,2.1.6c.5.6.5,1.7-.1,2.1,0,0-.2.1-.3.2ZM6.7,28.7v9.1c0,.1,0,.5.2.7h2.3v-9.9s0-1.6,0-2c0,0,0-.2,0-.3h-2.2c0,0,0,.2-.1.3,0,.3,0,1,0,1.5,0,.3,0,.4,0,.6h0ZM19.7,42c0,.1-.1.2-.2.4-.1.2-.3.4-.5.6-.4.2-.9.3-1.3.2-.3,0-.5-.2-.7-.3-.6-.6-.6-1.9-.6-2v-15.8c0-.8,0-2.1.5-2.6.4-.4.8-.4,1.3-.4s1.1.4,1.4.9c.3.7.3,1.5.3,2.3h0c0,2.8,0,5.7,0,8.2v6.3c0,.3,0,.6,0,.9,0,.4,0,.8-.2,1.2h0Z"/>
      <path class="cls-1" d="M26.5,30.5h5.7s4.8,0,7.2,0h.1c.7,0,1.4,0,2.1.2.5.2.8.6.8,1.1s-.2.8-.5,1.1c-.5.5-1.4.5-2.1.4h-14.9s-1.3,0-1.8-.5c-.2-.2-.3-.6-.3-.9s.1-.7.3-.9c.4-.4.9-.5,1.5-.5.1,0,.2,0,.3,0,.5,0,1.7,0,1.7,0h0ZM41.3,41.6c.2.6,0,1.1-.7,1.3-.4.2-.9.2-1.2.2h-12.1c-.7,0-1.5,0-2.2,0-.7,0-1.3-.6-1.3-1.4v-1.8c-.1-.4-.1-1,.2-1.3.5-.5,1.4-.6,2.2-.6s4.3,0,12.2,0v-.9h-12.8c-.3,0-.6,0-.9,0-.3,0-.6,0-.7-.4-.2-.4-.3-.7-.2-1.1.2-.6,1-.6,1.4-.7.3,0,.5,0,.8,0,1.6,0,3.4,0,12.7,0s2.7.5,2.7,1.7v1.9c0,.5-.2,1-.8,1.3-.4.3-.9.2-1.3.2h-12.3v.9h13.2c.5,0,1,.2,1.2.8h0ZM24,23.9c-.4-.8.1-1.6.9-1.8.8-.3,1.9-.2,2.7-.2,2.9,0,8.3,0,11.2,0s1.7,0,2.2.5c.5.5.5,1.6,0,2,0,0-.2.1-.3.2-.7.3-1.5,0-2.2.2,0,0,0,1.6,0,1.6,0,0,1.5,0,1.7.1.9.1,1.3.2,1.2,1.3-.1,1.7-1.2,1.4-2.6,1.5-.9,0-1.8,0-2.7,0-1.3,0-5.3,0-6.7,0-.9,0-2.1,0-3,0-.9,0-2.3-.3-2.4-1.4-.2-1.6,2-1.3,3-1.4v-1.7c-1.1,0-2.3,0-2.9-1h0ZM35.1,24.9h-5c0,0-.1.2-.1.3v1.4c.5,0,4.7,0,5.2,0,0,0,0-1.6,0-1.6Z"/>
      <path class="cls-1" d="M48.4,30.5h5.7s4.8,0,7.2,0h.1c.7,0,1.4,0,2.1.2.5.2.8.6.8,1.1s-.2.8-.5,1.1c-.5.5-1.4.5-2.1.4h-14.9s-1.3,0-1.8-.5c-.2-.2-.3-.6-.3-.9s.1-.7.3-.9c.4-.4.9-.5,1.5-.5,0,0,.2,0,.3,0,.5,0,1.7,0,1.7,0h0ZM63.2,41.6c.2.6,0,1.1-.7,1.3-.4.2-.9.2-1.2.2h-12.1c-.7,0-1.5,0-2.2,0-.7,0-1.3-.6-1.3-1.4v-1.8c-.1-.4-.1-1,.2-1.3.5-.5,1.4-.6,2.2-.6s4.3,0,12.2,0v-.9h-12.8c-.3,0-.6,0-.9,0-.3,0-.6,0-.7-.4-.2-.4-.3-.7-.2-1.1.2-.6,1-.6,1.3-.7.3,0,.5,0,.8,0,1.6,0,3.4,0,12.7,0s2.7.5,2.7,1.7v1.9c0,.5-.2,1-.8,1.3-.4.3-.9.2-1.3.2h-12.3v.9h13.2c.5,0,1,.2,1.2.8h0ZM45.9,23.9c-.4-.8,0-1.6.9-1.8.8-.3,1.8-.2,2.7-.2,2.9,0,8.3,0,11.2,0s1.7,0,2.2.5c.5.5.5,1.6,0,2,0,0-.2.1-.3.2-.7.3-1.5,0-2.2.2,0,0,0,1.6,0,1.6,0,0,1.5,0,1.7.1.9.1,1.3.2,1.2,1.3-.1,1.7-1.2,1.4-2.6,1.5-.9,0-1.8,0-2.7,0-1.3,0-5.3,0-6.7,0-.9,0-2.1,0-3,0-.9,0-2.3-.3-2.4-1.4-.2-1.6,2-1.3,3-1.4v-1.7c-1.1,0-2.3,0-2.9-1h0ZM57,24.9h-5c0,0,0,.2-.1.3v1.4c.5,0,4.7,0,5.2,0,0,0,0-1.6,0-1.6Z"/>
    </g>
  </g>
</svg>